Coordinates
version=1
nRows=10
nColumns=63
inDegrees=yes

Units are S.I. units (second, meters, Newtons, ...)
If the header above contains a line with 'inDegrees', this indicates whether rotational values are in degrees (yes) or radians (no).

endheader
time	pelvis_tilt	pelvis_list	pelvis_rotation	pelvis_tx	pelvis_ty	pelvis_tz	hip_flexion_r	hip_adduction_r	hip_rotation_r	knee_angle_r	knee_angle_r_beta	ankle_angle_r	subtalar_angle_r	mtp_angle_r	hip_flexion_l	hip_adduction_l	hip_rotation_l	knee_angle_l	knee_angle_l_beta	ankle_angle_l	subtalar_angle_l	mtp_angle_l	L5_S1_Flex_Ext	L5_S1_Lat_Bending	L5_S1_axial_rotation	L4_L5_Flex_Ext	L4_L5_Lat_Bending	L4_L5_axial_rotation	L3_L4_Flex_Ext	L3_L4_Lat_Bending	L3_L4_axial_rotation	L2_L3_Flex_Ext	L2_L3_Lat_Bending	L2_L3_axial_rotation	L1_L2_Flex_Ext	L1_L2_Lat_Bending	L1_L2_axial_rotation	L1_T12_Flex_Ext	L1_T12_Lat_Bending	L1_T12_axial_rotation	Abs_r3	Abs_r2	Abs_r1	Abs_t1	Abs_t2	neck_flexion	neck_bending	neck_rotation	arm_flex_r	arm_add_r	arm_rot_r	elbow_flex_r	pro_sup_r	wrist_flex_r	wrist_dev_r	arm_flex_l	arm_add_l	arm_rot_l	elbow_flex_l	pro_sup_l	wrist_flex_l	wrist_dev_l
      2.71666667	     -1.80782513	     -6.13362079	     94.28283123	      0.17813496	      0.91455657	      0.55461541	      1.61368175	     -2.55801954	      1.53644507	      4.42355819	      0.07720566	     18.65525560	      0.94978214	      0.00000000	      5.34275090	      0.29560445	    -11.04652762	      9.21741489	      0.16087424	     26.25479561	     10.85661244	      0.00000000	      0.06641427	     -0.81054885	     -0.05213071	      0.12333794	     -1.07802997	     -0.05538887	      0.10911201	     -1.97076848	     -0.05538887	      0.07590487	     -1.97076848	     -0.04561437	      0.06167229	     -1.65287122	     -0.04235620	      0.03794911	     -1.25554017	     -0.03909803	      0.47439050	     -9.16909072	     -0.28993535	      0.00000000	      0.00000000	     14.46649999	      3.39676351	     -2.93618531	    138.28707362	   -124.18130233	     76.83844997	    101.19603829	     77.09961022	     -9.85298626	      4.63711899	     -8.77173609	    -23.51838520	      1.49193362	     62.18035234	     88.73223866	    -14.16264722	      4.70005171
      2.73333333	     -1.93108890	     -5.93824112	     93.33693104	      0.17846213	      0.91464882	      0.55410418	      1.42134949	     -2.71181756	      1.94192754	      4.32369804	      0.07546277	     18.85262271	      1.66512767	      0.00000000	      4.94821390	      0.41184305	    -11.65532971	      9.07119545	      0.15832223	     26.63379892	     10.64580539	      0.00000000	      0.05604744	     -0.81745447	     -0.12571203	      0.10408570	     -1.08721444	     -0.13356903	      0.09208034	     -1.98755879	     -0.13356903	      0.06405662	     -1.98755879	     -0.10999803	      0.05204565	     -1.66695315	     -0.10214102	      0.03202551	     -1.26623697	     -0.09428402	      0.40034127	     -9.24720844	     -0.69917259	      0.00000000	      0.00000000	     13.99102228	      3.59179452	     -1.31551928	    141.63449395	   -128.91065534	     80.56276812	     96.95816298	     79.46804811	    -12.66068382	      8.16315824	     -9.65918121	    -23.29717965	      1.07055668	     62.23981233	     88.81836091	    -15.90495001	      4.22464853
      2.75000000	     -2.03141774	     -5.79925292	     92.51726692	      0.17866624	      0.91464978	      0.55353397	      1.29792410	     -2.84187731	      2.42555158	      4.24261138	      0.07404754	     19.07823194	      2.18309182	      0.00000000	      4.60669552	      0.53757648	    -11.98078734	      8.93295804	      0.15590953	     26.81198044	     10.07103903	      0.00000000	      0.04955673	     -0.82291309	     -0.15455941	      0.09203180	     -1.09447441	     -0.16421937	      0.08141675	     -2.00083088	     -0.16421937	      0.05663839	     -2.00083088	     -0.13523948	      0.04601838	     -1.67808437	     -0.12557952	      0.02831672	     -1.27469237	     -0.11591956	      0.35397877	     -9.30895742	     -0.85961306	      0.00000000	      0.00000000	     13.80905317	      3.72539571	     -0.08964401	    144.03222280	   -133.52041696	     83.03305812	     90.98721506	     83.29887457	    -14.54554264	     11.52222324	    -10.28309085	    -23.07357298	      0.82906492	     62.32580742	     88.85915925	    -16.92838749	      3.86971503
      2.76666667	     -2.04745201	     -5.73985987	     91.88445180	      0.17871012	      0.91441057	      0.55304253	      1.25071713	     -2.88231354	      2.92062505	      4.15568653	      0.07253041	     19.26148987	      2.50341920	      0.00000000	      4.38502070	      0.57427262	    -12.25401711	      8.84338407	      0.15434617	     26.87275318	      9.57041371	      0.00000000	      0.04669767	     -0.81860376	     -0.13029573	      0.08672224	     -1.08874300	     -0.13843921	      0.07671960	     -1.99035318	     -0.13843921	      0.05337077	     -1.99035318	     -0.11400876	      0.04336346	     -1.66929678	     -0.10586528	      0.02668305	     -1.26801722	     -0.09772180	      0.33355678	     -9.26020943	     -0.72466575	      0.00000000	      0.00000000	     14.06660281	      3.93484006	      0.61801782	    145.27354961	   -137.91759514	     84.26384142	     82.94041031	     84.18923724	    -14.76353127	     12.71997936	    -10.53675185	    -22.85948347	      0.92065306	     62.33494609	     88.86552628	    -16.97866279	      3.65942805
      2.78333333	     -2.24022018	     -5.64047242	     91.03277747	      0.17906431	      0.91408648	      0.55245855	      1.26494080	     -3.11128525	      3.65611546	      4.25441335	      0.07425352	     19.58621324	      2.78552343	      0.00000000	      4.00288271	      0.81297357	    -12.54927649	      8.56299271	      0.14945242	     26.65882033	      8.83369230	      0.00000000	      0.04272757	     -0.82816448	     -0.09660297	      0.07934937	     -1.10145876	     -0.10264066	      0.07019712	     -2.01359912	     -0.10264066	      0.04883334	     -2.01359912	     -0.08452760	      0.03967682	     -1.68879301	     -0.07848992	      0.02441453	     -1.28282678	     -0.07245223	      0.30519874	     -9.36836224	     -0.53727676	      0.00000000	      0.00000000	     14.61399648	      4.32470300	      1.79095411	    146.53748300	   -141.50354842	     85.41935979	     72.90272449	     85.48600617	    -14.14381045	     11.79685185	    -11.09044440	    -22.46966269	      0.47881316	     62.57468267	     88.83278819	    -16.84366021	      3.49710816
      2.80000000	     -2.37754708	     -5.58264242	     90.44382690	      0.17901112	      0.91344325	      0.55207717	      1.28702956	     -3.28518403	      4.55440578	      4.33133980	      0.07559614	     19.75731798	      2.44278757	      0.00000000	      3.69847983	      1.07752843	    -11.85603016	      8.23022981	      0.14364461	     26.30854327	      7.11526771	      0.00000000	      0.04338709	     -0.81702657	     -0.09402323	      0.08057417	     -1.08664533	     -0.09989969	      0.07128065	     -1.98651839	     -0.09989969	      0.04958711	     -1.98651839	     -0.08227033	      0.04028925	     -1.66608057	     -0.07639388	      0.02479138	     -1.26557415	     -0.07051743	      0.30990966	     -9.24236791	     -0.52292902	      0.00000000	      0.00000000	     15.29418972	      4.45395660	      3.35232577	    147.10224347	   -144.09157493	     86.74353557	     61.02985722	     84.40299035	    -13.14709348	      9.08409320	    -11.56909041	    -21.95903032	     -0.09425322	     62.79973963	     88.78922853	    -15.29736567	      3.95296478
      2.81666667	     -2.47011693	     -5.37833839	     89.85393470	      0.17882640	      0.91260079	      0.55212307	      1.22198621	     -3.42537739	      5.33033074	      4.48834091	      0.07833633	     19.97441119	      2.19784225	      0.00000000	      3.28285810	      1.27137945	    -11.56581799	      7.93109538	      0.13842373	     26.24562426	      6.07649757	      0.00000000	      0.02123585	     -0.77881236	     -0.10104363	      0.03943709	     -1.03582043	     -0.10735886	      0.03488837	     -1.89360436	     -0.10735886	      0.02427045	     -1.89360436	     -0.08841318	      0.01971961	     -1.58815415	     -0.08209795	      0.01213416	     -1.20638034	     -0.07578272	      0.15168554	     -8.81008112	     -0.56197436	      0.00000000	      0.00000000	     15.89227966	      4.45951395	      5.73801445	    147.42216167	   -145.41086186	     89.64904013	     48.14703582	     79.76753706	    -13.00890852	      6.88122283	    -11.86622391	    -21.29330826	     -0.45486431	     62.87850862	     88.67661887	    -13.84912344	      4.53604988
      2.83333333	     -2.50689988	     -4.99965972	     89.34910850	      0.17827837	      0.91142835	      0.55276397	      1.02567176	     -3.52906964	      5.96240225	      4.70710217	      0.08215443	     20.37038844	      1.93942676	      0.00000000	      2.76401162	      1.41806100	    -11.29821790	      7.66543312	      0.13378705	     26.51414878	      5.35296936	      0.00000000	     -0.02910504	     -0.69900141	     -0.18694793	     -0.05405097	     -0.92967188	     -0.19863218	     -0.04781667	     -1.69955204	     -0.19863218	     -0.03326415	     -1.69955204	     -0.16357944	     -0.02702694	     -1.42540368	     -0.15189519	     -0.01663062	     -1.08275319	     -0.14021095	     -0.20789439	     -7.90724379	     -1.03974831	      0.00000000	      0.00000000	     16.26907438	      3.86279979	      9.70590464	    147.54854652	   -145.57936437	     97.17486754	     35.77037863	     65.33197075	    -13.61528890	      5.18558781	    -12.10062621	    -20.41045351	     -0.89030557	     62.85552193	     88.49192268	    -12.21522477	      5.32481831
      2.85000000	     -2.40434508	     -4.42486325	     88.96043890	      0.17704468	      0.91002035	      0.55417061	      0.71557923	     -3.54685729	      5.89359517	      5.03564493	      0.08788858	     21.10377016	      2.38039873	      0.00000000	      2.15250924	      1.42455223	    -11.36581833	      7.51080680	      0.13108831	     27.22357935	      5.40052271	      0.00000000	     -0.11496009	     -0.56881746	     -0.38072722	     -0.21349239	     -0.75652723	     -0.40452267	     -0.18886794	     -1.38302278	     -0.40452267	     -0.13138789	     -1.38302278	     -0.33313631	     -0.10675194	     -1.15993257	     -0.30934086	     -0.06568820	     -0.88109825	     -0.28554541	     -0.82114845	     -6.43457691	     -2.11749056	      0.00000000	      0.00000000	     16.41376177	      2.61868676	     15.05923242	    147.46908246	   -144.99989297	    114.79692140	     25.98851335	     34.86586909	    -13.38171429	      2.69000678	    -12.23870306	    -19.19194758	     -1.55876449	     62.67498013	     88.20621766	    -10.53377617	      6.06528888
      2.86666667	     -2.17005928	     -3.77872552	     88.57660309	      0.17523135	      0.90858313	      0.55622061	      0.43451616	     -3.49157538	      5.21668465	      5.45828386	      0.09526502	     22.08201261	      3.57489852	      0.00000000	      1.51497936	      1.34940788	    -11.32913311	      7.34064552	      0.12811843	     28.04804054	      5.36504338	      0.00000000	     -0.21677162	     -0.40773443	     -0.63910443	     -0.40256658	     -0.54228679	     -0.67904845	     -0.35613410	     -0.99136549	     -0.67904845	     -0.24774829	     -0.99136549	     -0.55921637	     -0.20129413	     -0.83145205	     -0.51927235	     -0.12386330	     -0.63158063	     -0.47932832	     -1.54837801	     -4.61237340	     -3.55450709	      0.00000000	      0.00000000	     16.33464921	      0.99206005	     20.67583714	    148.95031197	   -144.93162270	    136.38799011	     19.81310589	      7.63912198	    -11.45690543	      2.61499048	    -12.19528142	    -17.81109777	     -2.33356901	     62.37122009	     87.84041294	     -8.90894942	      6.69341424
